{
    "asset": {
        "generator": "COLLADA2GLTF",
        "version": "2.0"
    },
    "scenes": [
        {
            "nodes": [
                0
            ]
        }
    ],
    "scene": 0,
    "nodes": [
        {
            "children": [
                3,
                2,
                1
            ],
            "matrix": [
                1.0,
                0.0,
                0.0,
                0.0,
                0.0,
                0.0,
                -1.0,
                0.0,
                0.0,
                1.0,
                0.0,
                0.0,
                0.0,
                0.0,
                0.0,
                1.0
            ],
            "name": "Z_UP"
        },
        {
            "mesh": 0,
            "name": "Teapot002"
        },
        {
            "mesh": 1,
            "name": "Teapot001"
        },
        {
            "mesh": 2,
            "name": "Torus001"
        }
    ],
    "meshes": [
        {
            "primitives": [
                {
                    "attributes": {
                        "NORMAL": 1,
                        "POSITION": 2
                    },
                    "indices": 0,
                    "mode": 4,
                    "material": 0
                }
            ],
            "name": "Teapot002"
        },
        {
            "primitives": [
                {
                    "attributes": {
                        "NORMAL": 4,
                        "POSITION": 5
                    },
                    "indices": 3,
                    "mode": 4,
                    "material": 1
                }
            ],
            "name": "Teapot001"
        },
        {
            "primitives": [
                {
                    "attributes": {
                        "NORMAL": 7,
                        "POSITION": 8
                    },
                    "indices": 6,
                    "mode": 4,
                    "material": 2
                }
            ],
            "name": "Torus001"
        }
    ],
    "accessors": [
        {
            "bufferView": 0,
            "byteOffset": 0,
            "componentType": 5123,
            "count": 2976,
            "max": [
                627
            ],
            "min": [
                0
            ],
            "type": "SCALAR"
        },
        {
            "bufferView": 1,
            "byteOffset": 0,
            "componentType": 5126,
            "count": 628,
            "max": [
                0.9995999932289124,
                0.9998999834060668,
                1.0
            ],
            "min": [
                -0.9977999925613404,
                -0.9997999668121338,
                -1.0
            ],
            "type": "VEC3"
        },
        {
            "bufferView": 1,
            "byteOffset": 7536,
            "componentType": 5126,
            "count": 628,
            "max": [
                -0.4417339265346527,
                0.03907027840614319,
                0.5546876788139343
            ],
            "min": [
                -1.573669672012329,
                -0.6652945280075073,
                0.0
            ],
            "type": "VEC3"
        },
        {
            "bufferView": 0,
            "byteOffset": 5952,
            "componentType": 5123,
            "count": 2976,
            "max": [
                627
            ],
            "min": [
                0
            ],
            "type": "SCALAR"
        },
        {
            "bufferView": 1,
            "byteOffset": 15072,
            "componentType": 5126,
            "count": 628,
            "max": [
                0.9995999932289124,
                0.9998999834060668,
                1.0
            ],
            "min": [
                -0.9977999925613404,
                -0.9997999668121338,
                -1.0
            ],
            "type": "VEC3"
        },
        {
            "bufferView": 1,
            "byteOffset": 22608,
            "componentType": 5126,
            "count": 628,
            "max": [
                1.4045361280441285,
                0.19568413496017457,
                0.8963024616241455
            ],
            "min": [
                -0.4245254397392273,
                -0.9424771666526794,
                0.0
            ],
            "type": "VEC3"
        },
        {
            "bufferView": 0,
            "byteOffset": 11904,
            "componentType": 5123,
            "count": 1728,
            "max": [
                323
            ],
            "min": [
                0
            ],
            "type": "SCALAR"
        },
        {
            "bufferView": 1,
            "byteOffset": 30144,
            "componentType": 5126,
            "count": 324,
            "max": [
                1.0,
                1.0,
                0.9997999668121338
            ],
            "min": [
                -1.0,
                -1.0,
                -0.9997999668121338
            ],
            "type": "VEC3"
        },
        {
            "bufferView": 1,
            "byteOffset": 34032,
            "componentType": 5126,
            "count": 324,
            "max": [
                1.1056137084960938,
                2.3311662673950197,
                0.33240216970443728
            ],
            "min": [
                -0.7609636783599854,
                0.4645863175392151,
                -0.33240216970443728
            ],
            "type": "VEC3"
        }
    ],
    "materials": [
        {
            "pbrMetallicRoughness": {
                "baseColorFactor": [
                    0.03139999881386757,
                    0.23919999599456788,
                    0.5411999821662903,
                    1.0
                ],
                "metallicFactor": 0.0
            },
            "emissiveFactor": [
                0.0,
                0.0,
                0.0
            ],
            "name": "wire_008061138"
        },
        {
            "pbrMetallicRoughness": {
                "baseColorFactor": [
                    0.03139999881386757,
                    0.23919999599456788,
                    0.5411999821662903,
                    1.0
                ],
                "metallicFactor": 0.0
            },
            "emissiveFactor": [
                0.0,
                0.0,
                0.0
            ],
            "name": "wire_008061138"
        },
        {
            "pbrMetallicRoughness": {
                "baseColorFactor": [
                    0.8352999687194824,
                    0.6038999557495117,
                    0.8980000615119934,
                    1.0
                ],
                "metallicFactor": 0.0
            },
            "emissiveFactor": [
                0.0,
                0.0,
                0.0
            ],
            "name": "wire_213154229"
        }
    ],
    "bufferViews": [
        {
            "buffer": 0,
            "byteOffset": 37920,
            "byteLength": 15360,
            "target": 34963
        },
        {
            "buffer": 0,
            "byteOffset": 0,
            "byteLength": 37920,
            "byteStride": 12,
            "target": 34962
        }
    ],
    "buffers": [
        {
            "byteLength": 53280,
            "uri": "data:application/octet-stream;base64,"
        }
    ]
}
